<?xml version="1.0" encoding="utf-8"?>
<!-- Generator: Adobe Illustrator 19.0.0, SVG Export Plug-In . SVG Version: 6.00 Build 0)  -->
<svg version="1.1" id="圖層_1" xmlns="http://www.w3.org/2000/svg" xmlns:xlink="http://www.w3.org/1999/xlink" x="0px" y="0px"
	 viewBox="-409 471 180 60" style="enable-background:new -409 471 180 60;" xml:space="preserve">
<style type="text/css">
	.st0{fill:#FFFFFF;}
</style>
<path d="M-396.3,529.7c-0.5,0-0.9,0-1.4,0c-0.9,0-1.9-0.1-2.8-0.2c-0.9-0.1-1.7-0.4-2.5-0.8c-0.8-0.4-1.5-0.9-2.1-1.5
	c-0.6-0.6-1.1-1.3-1.5-2.1c-0.4-0.8-0.7-1.6-0.8-2.5c-0.2-0.9-0.2-1.9-0.2-2.8c0-0.3,0-1.4,0-1.4v-34.6c0,0,0-1,0-1.3
	c0-0.9,0.1-1.9,0.2-2.8c0.1-0.9,0.4-1.7,0.8-2.5c0.4-0.8,0.9-1.5,1.5-2.1c0.6-0.6,1.3-1.1,2.1-1.5c0.8-0.4,1.6-0.7,2.5-0.8
	c0.9-0.2,1.9-0.2,2.8-0.2l1.4,0h154.2l1.4,0c0.9,0,1.9,0.1,2.8,0.2c0.9,0.1,1.7,0.4,2.5,0.8c1.6,0.8,2.8,2.1,3.6,3.6
	c0.4,0.8,0.7,1.6,0.8,2.5c0.2,0.9,0.2,1.9,0.3,2.8c0,0.4,0,0.9,0,1.3c0,0.6,0,1.1,0,1.6v31.4c0,0.5,0,1.1,0,1.6c0,0.5,0,0.9,0,1.4
	c0,0.9-0.1,1.9-0.3,2.8c-0.1,0.9-0.4,1.7-0.8,2.5c-0.4,0.8-0.9,1.5-1.5,2.1c-0.6,0.6-1.3,1.1-2.1,1.5c-0.8,0.4-1.6,0.7-2.5,0.8
	c-0.9,0.2-1.9,0.2-2.8,0.2c-0.4,0-0.9,0-1.3,0l-1.6,0L-396.3,529.7z"/>
<path class="st0" d="M-371.8,501.5c0-2.5,1.4-4.9,3.5-6.2c-1.4-2-3.6-3.2-6-3.2c-2.5-0.3-5,1.5-6.2,1.5c-1.3,0-3.3-1.5-5.4-1.4
	c-2.8,0.1-5.3,1.6-6.7,4.1c-2.9,5-0.7,12.4,2,16.5c1.4,2,3,4.2,5.1,4.1c2.1-0.1,2.9-1.3,5.4-1.3c2.5,0,3.2,1.3,5.4,1.3
	c2.2,0,3.6-2,5-4c1-1.4,1.8-3,2.3-4.6C-370.1,506.9-371.8,504.3-371.8,501.5z M-375.9,489.3c1.2-1.5,1.8-3.3,1.7-5.2
	c-1.9,0.2-3.6,1.1-4.8,2.5c-1.2,1.4-1.8,3.2-1.7,5C-378.9,491.6-377.1,490.8-375.9,489.3z M-345.5,511.7h-7.1l-1.7,5h-3l6.7-18.6
	h3.1l6.7,18.6h-3.1L-345.5,511.7z M-351.9,509.4h5.6l-2.8-8.2h-0.1L-351.9,509.4z M-326.3,510c0,4.2-2.3,6.9-5.7,6.9
	c-1.8,0.1-3.4-0.8-4.3-2.4h-0.1v6.7h-2.8v-18.1h2.7v2.3h0c0.9-1.5,2.6-2.5,4.3-2.4C-328.5,503-326.3,505.7-326.3,510L-326.3,510z
	 M-329.1,510c0-2.7-1.4-4.6-3.6-4.6c-2.1,0-3.6,1.8-3.6,4.6c0,2.7,1.4,4.6,3.6,4.6C-330.5,514.5-329.1,512.7-329.1,510z M-311.3,510
	c0,4.2-2.3,6.9-5.7,6.9c-1.8,0.1-3.4-0.8-4.3-2.4h-0.1v6.7h-2.8v-18.1h2.7v2.3h0.1c0.9-1.5,2.6-2.5,4.3-2.4
	C-313.6,503-311.3,505.7-311.3,510z M-314.2,510c0-2.7-1.4-4.6-3.6-4.6c-2.1,0-3.6,1.8-3.6,4.6c0,2.7,1.4,4.6,3.6,4.6
	C-315.6,514.5-314.2,512.7-314.2,510L-314.2,510z M-301.4,511.6c0.2,1.8,2,3.1,4.5,3.1c2.3,0,4-1.2,4-2.9c0-1.4-1-2.3-3.4-2.9
	l-2.4-0.6c-3.4-0.8-5-2.4-5-5c0-3.2,2.8-5.4,6.8-5.4c3.9,0,6.6,2.2,6.7,5.4h-2.8c-0.2-1.9-1.7-3-4-3s-3.8,1.1-3.8,2.8
	c0,1.3,1,2.1,3.4,2.7l2.1,0.5c3.8,0.9,5.4,2.4,5.4,5.2c0,3.5-2.8,5.7-7.2,5.7c-4.1,0-6.9-2.1-7.1-5.5L-301.4,511.6z M-284,500v3.2
	h2.6v2.2h-2.6v7.5c0,1.2,0.5,1.7,1.7,1.7c0.3,0,0.6,0,0.9-0.1v2.2c-0.5,0.1-1,0.1-1.5,0.1c-2.7,0-3.8-1-3.8-3.7v-7.8h-2v-2.2h2V500
	H-284z M-279.9,510c0-4.3,2.5-7,6.4-7c3.9,0,6.4,2.7,6.4,7c0,4.3-2.5,7-6.4,7C-277.4,516.9-279.9,514.2-279.9,510z M-269.9,510
	c0-2.9-1.3-4.7-3.6-4.7s-3.6,1.7-3.6,4.7c0,2.9,1.3,4.7,3.6,4.7S-269.9,512.9-269.9,510z M-264.7,503.2h2.7v2.3h0.1
	c0.4-1.5,1.7-2.5,3.3-2.5c0.3,0,0.6,0,1,0.1v2.6c-0.4-0.1-0.8-0.2-1.3-0.2c-0.8,0-1.6,0.3-2.2,0.9c-0.6,0.6-0.8,1.4-0.7,2.2v8.1
	h-2.8V503.2z M-244.9,512.8c-0.4,2.5-2.8,4.2-5.8,4.2c-4,0-6.4-2.6-6.4-6.9c0-4.3,2.5-7,6.3-7c3.8,0,6.1,2.6,6.1,6.7v1h-9.6v0.2
	c-0.1,1,0.3,2,1,2.7s1.7,1.1,2.7,1.1c1.4,0.1,2.6-0.6,3.1-1.9H-244.9z M-254.3,508.7h6.8c0.1-0.9-0.3-1.8-0.9-2.5s-1.5-1-2.4-1
	c-0.9,0-1.8,0.4-2.4,1S-254.3,507.8-254.3,508.7z M-352.3,484.1c1.2-0.1,2.3,0.4,3.2,1.2c0.8,0.9,1.2,2,1.1,3.2
	c0,2.9-1.5,4.5-4.2,4.5h-3.2v-9L-352.3,484.1z M-354.1,491.8h1.7c0.8,0.1,1.7-0.3,2.2-0.9c0.6-0.6,0.8-1.5,0.7-2.3
	c0.1-0.8-0.1-1.7-0.7-2.3c-0.6-0.6-1.4-1-2.2-0.9h-1.7V491.8z M-346.5,489.7c-0.1-1.2,0.5-2.4,1.5-3c1-0.6,2.3-0.6,3.4,0
	c1,0.6,1.6,1.8,1.5,3c0.1,1.2-0.5,2.4-1.5,3s-2.3,0.6-3.4,0C-346,492.1-346.6,490.9-346.5,489.7L-346.5,489.7z M-341.5,489.7
	c0-1.5-0.7-2.3-1.8-2.3c-1.2,0-1.8,0.9-1.8,2.3c0,1.5,0.7,2.3,1.8,2.3C-342.1,492-341.5,491.1-341.5,489.7z M-331.6,493h-1.4l-1.4-5
	h-0.1l-1.4,5h-1.4l-1.9-6.8h1.4l1.2,5.2h0.1l1.4-5.2h1.3l1.4,5.2h0.1l1.2-5.2h1.3L-331.6,493z M-328.2,486.3h1.3v1.1h0.1
	c0.3-0.8,1.2-1.3,2-1.2c0.7,0,1.3,0.2,1.8,0.7c0.5,0.5,0.7,1.2,0.6,1.8v4.4h-1.3v-4c0-1.1-0.5-1.6-1.5-1.6c-0.5,0-0.9,0.2-1.2,0.5
	c-0.3,0.3-0.5,0.8-0.4,1.2v4h-1.3L-328.2,486.3z M-320.4,483.7h1.3v9.4h-1.3V483.7z M-317.2,489.7c-0.1-1.2,0.5-2.4,1.5-3
	c1-0.6,2.3-0.6,3.4,0c1,0.6,1.6,1.8,1.5,3c0.1,1.2-0.5,2.4-1.5,3c-1,0.6-2.3,0.6-3.4,0S-317.3,490.9-317.2,489.7L-317.2,489.7z
	 M-312.2,489.7c0-1.5-0.7-2.3-1.8-2.3c-1.2,0-1.8,0.9-1.8,2.3c0,1.5,0.7,2.3,1.8,2.3C-312.8,492-312.2,491.1-312.2,489.7z
	 M-309.4,491.1c0-1.2,0.9-1.9,2.5-2l1.8-0.1v-0.6c0-0.7-0.5-1.1-1.4-1.1c-0.7,0-1.3,0.3-1.4,0.8h-1.3c0.1-1.2,1.2-1.9,2.8-1.9
	c1.7,0,2.6,0.8,2.6,2.3v4.6h-1.3v-0.9h-0.1c-0.4,0.7-1.2,1.1-2,1.1c-0.6,0.1-1.1-0.1-1.6-0.5S-309.4,491.7-309.4,491.1L-309.4,491.1
	z M-305.1,490.6V490l-1.6,0.1c-0.9,0.1-1.4,0.4-1.4,1c0,0.6,0.5,1,1.3,1c0.4,0,0.9-0.1,1.2-0.4C-305.3,491.4-305.1,491-305.1,490.6z
	 M-302,489.7c0-2.1,1.1-3.5,2.8-3.5c0.9,0,1.7,0.4,2.1,1.2h0.1v-3.7h1.3v9.4h-1.3V492h-0.1c-0.4,0.8-1.3,1.2-2.1,1.2
	C-300.9,493.2-302,491.8-302,489.7z M-300.6,489.7c0,1.4,0.7,2.3,1.8,2.3c1.1,0,1.8-0.9,1.8-2.3c0-1.4-0.7-2.3-1.8-2.3
	C-299.9,487.4-300.6,488.2-300.6,489.7z M-290.2,489.7c-0.1-1.2,0.5-2.4,1.5-3c1-0.6,2.3-0.6,3.4,0c1,0.6,1.6,1.8,1.5,3
	c0.1,1.2-0.5,2.4-1.5,3s-2.3,0.6-3.4,0C-289.7,492.1-290.3,490.9-290.2,489.7L-290.2,489.7z M-285.2,489.7c0-1.5-0.7-2.3-1.8-2.3
	c-1.2,0-1.8,0.9-1.8,2.3c0,1.5,0.7,2.3,1.8,2.3C-285.8,492-285.2,491.1-285.2,489.7z M-282,486.3h1.3v1.1h0.1c0.3-0.8,1.2-1.3,2-1.2
	c0.7,0,1.3,0.2,1.8,0.7c0.5,0.5,0.7,1.2,0.6,1.8v4.4h-1.3v-4c0-1.1-0.5-1.6-1.5-1.6c-0.5,0-0.9,0.2-1.2,0.5s-0.5,0.8-0.4,1.2v4h-1.3
	L-282,486.3z M-268.7,484.6v1.7h1.5v1.1h-1.5v3.5c0,0.7,0.3,1,1,1c0.2,0,0.3,0,0.5,0v1.1c-0.2,0-0.5,0.1-0.7,0.1
	c-1.5,0-2.1-0.5-2.1-1.8v-3.8h-1.1v-1.1h1.1v-1.7H-268.7z M-265.4,483.7h1.3v3.7h0.1c0.4-0.8,1.2-1.3,2.1-1.2c0.7,0,1.3,0.2,1.8,0.7
	s0.7,1.1,0.6,1.8v4.4h-1.3v-4c0-1.1-0.5-1.6-1.4-1.6c-0.5,0-0.9,0.1-1.2,0.5c-0.3,0.3-0.5,0.8-0.5,1.3v3.9h-1.3V483.7z
	 M-251.9,491.2c-0.4,1.3-1.6,2.1-2.9,2c-0.9,0-1.8-0.3-2.4-1c-0.6-0.7-0.9-1.6-0.8-2.5c-0.1-0.9,0.2-1.8,0.8-2.5s1.5-1.1,2.4-1.1
	c1.9,0,3,1.3,3,3.4v0.5h-4.8v0.1c0,0.5,0.1,1,0.5,1.4c0.3,0.4,0.8,0.6,1.3,0.6c0.7,0.1,1.3-0.2,1.6-0.8H-251.9z M-256.5,489h3.4
	c0-0.5-0.1-0.9-0.4-1.2s-0.8-0.5-1.2-0.5c-0.5,0-0.9,0.2-1.2,0.5C-256.4,488.1-256.6,488.6-256.5,489L-256.5,489z"/>
</svg>
