<?xml version="1.0" encoding="utf-8"?>
<!-- Generator: Adobe Illustrator 19.0.0, SVG Export Plug-In . SVG Version: 6.00 Build 0)  -->
<svg version="1.1" id="圖層_1" xmlns="http://www.w3.org/2000/svg" xmlns:xlink="http://www.w3.org/1999/xlink" x="0px" y="0px"
	 viewBox="-409 471 180 60" style="enable-background:new -409 471 180 60;" xml:space="preserve">
<style type="text/css">
	.st0{fill:#FFFFFF;stroke:#FFFFFF;stroke-width:0.5;}
	.st1{fill:#FFFFFF;}
	.st2{fill:url(#SVGID_1_);}
	.st3{fill:url(#SVGID_2_);}
	.st4{fill:url(#SVGID_3_);}
	.st5{fill:url(#SVGID_4_);}
	.st6{opacity:0.2;enable-background:new    ;}
	.st7{opacity:0.12;enable-background:new    ;}
	.st8{opacity:0.25;fill:#FFFFFF;enable-background:new    ;}
</style>
<path d="M-396.3,529.7c-0.5,0-0.9,0-1.4,0c-0.9,0-1.9-0.1-2.8-0.2c-0.9-0.1-1.7-0.4-2.5-0.8c-0.8-0.4-1.5-0.9-2.1-1.5
	c-0.6-0.6-1.1-1.3-1.5-2.1c-0.4-0.8-0.7-1.6-0.8-2.5c-0.2-0.9-0.2-1.9-0.2-2.8c0-0.3,0-1.4,0-1.4v-34.6c0,0,0-1,0-1.3
	c0-0.9,0.1-1.9,0.2-2.8c0.1-0.9,0.4-1.7,0.8-2.5c0.4-0.8,0.9-1.5,1.5-2.1c0.6-0.6,1.3-1.1,2.1-1.5c0.8-0.4,1.6-0.7,2.5-0.8
	c0.9-0.2,1.9-0.2,2.8-0.2l1.4,0h154.2l1.4,0c0.9,0,1.9,0.1,2.8,0.2c0.9,0.1,1.7,0.4,2.5,0.8c1.6,0.8,2.8,2.1,3.6,3.6
	c0.4,0.8,0.7,1.6,0.8,2.5c0.2,0.9,0.2,1.9,0.3,2.8c0,0.4,0,0.9,0,1.3c0,0.6,0,1.1,0,1.6v31.4c0,0.5,0,1.1,0,1.6c0,0.5,0,0.9,0,1.4
	c0,0.9-0.1,1.9-0.3,2.8c-0.1,0.9-0.4,1.7-0.8,2.5c-0.4,0.8-0.9,1.5-1.5,2.1c-0.6,0.6-1.3,1.1-2.1,1.5c-0.8,0.4-1.6,0.7-2.5,0.8
	c-0.9,0.2-1.9,0.2-2.8,0.2c-0.4,0-0.9,0-1.3,0l-1.6,0L-396.3,529.7z"/>
<path class="st0" d="M-345.9,487.8c0,1-0.3,1.9-0.9,2.6c-0.8,0.8-1.7,1.2-2.8,1.2c-1.2,0-2.1-0.4-2.8-1.2c-0.8-0.8-1.2-1.7-1.2-2.8
	c0-1.2,0.4-2.1,1.2-2.8c0.8-0.8,1.7-1.2,2.8-1.2c0.5,0,1,0.1,1.5,0.4s0.9,0.5,1.2,0.9l-0.6,0.6c-0.5-0.6-1.2-0.9-2.1-0.9
	c-0.8,0-1.5,0.3-2.1,0.9c-0.6,0.5-0.9,1.3-0.9,2.2c0,0.9,0.3,1.7,0.9,2.2s1.3,0.9,2.1,0.9c0.9,0,1.5-0.3,2.2-0.9
	c0.4-0.4,0.6-0.9,0.6-1.5h-2.8v-0.9h3.7V487.8z M-340,484.6h-3.5v2.4h3.2v0.9h-3.2v2.4h3.5v1h-4.5v-7.7h4.5V484.6z M-335.7,491.4h-1
	v-6.8h-2.2v-0.9h5.4v0.9h-2.2V491.4z M-329.8,491.4v-7.7h1v7.7H-329.8z M-324.3,491.4h-1v-6.8h-2.2v-0.9h5.3v0.9h-2.2v6.8H-324.3z
	 M-312.1,490.4c-0.8,0.8-1.7,1.2-2.8,1.2s-2.1-0.4-2.8-1.2c-0.8-0.8-1.2-1.7-1.2-2.8c0-1.2,0.4-2.1,1.2-2.8c0.8-0.8,1.7-1.2,2.8-1.2
	s2.1,0.4,2.8,1.2c0.8,0.8,1.2,1.7,1.2,2.8C-310.9,488.7-311.3,489.6-312.1,490.4z M-317,489.7c0.5,0.5,1.3,0.9,2.1,0.9
	c0.8,0,1.5-0.3,2.1-0.9c0.5-0.5,0.9-1.3,0.9-2.2c0-0.9-0.3-1.7-0.9-2.2c-0.5-0.5-1.3-0.9-2.1-0.9s-1.5,0.3-2.1,0.9
	c-0.5,0.5-0.9,1.3-0.9,2.2C-317.9,488.4-317.6,489.2-317,489.7z M-309.5,491.4v-7.7h1.2l3.7,6.1v-6.1h1v7.7h-1l-4-6.3v6.3H-309.5z"
	/>
<path class="st1" d="M-319.2,502.7c-3.1,0-5.6,2.3-5.6,5.5c0,3.1,2.5,5.5,5.6,5.5s5.6-2.3,5.6-5.5
	C-313.6,504.9-316.1,502.7-319.2,502.7z M-319.2,511.5c-1.7,0-3.1-1.4-3.1-3.4c0-1.9,1.4-3.4,3.1-3.4c1.7,0,3.1,1.3,3.1,3.4
	C-316.1,510.1-317.5,511.5-319.2,511.5z M-331.2,502.7c-3.1,0-5.6,2.3-5.6,5.5c0,3.1,2.5,5.5,5.6,5.5s5.6-2.3,5.6-5.5
	C-325.6,504.9-328.1,502.7-331.2,502.7z M-331.2,511.5c-1.7,0-3.1-1.4-3.1-3.4c0-1.9,1.4-3.4,3.1-3.4s3.1,1.3,3.1,3.4
	C-328.1,510.1-329.5,511.5-331.2,511.5z M-345.5,504.4v2.3h5.6c-0.1,1.3-0.6,2.3-1.3,3c-0.8,0.8-2.1,1.7-4.3,1.7
	c-3.5,0-6.1-2.7-6.1-6.2s2.7-6.2,6.1-6.2c1.8,0,3.2,0.8,4.3,1.7l1.7-1.7c-1.4-1.3-3.2-2.3-5.8-2.3c-4.6,0-8.7,3.9-8.7,8.5
	c0,4.6,4,8.5,8.7,8.5c2.6,0,4.4-0.8,5.9-2.4c1.5-1.5,2.1-3.7,2.1-5.4c0-0.5,0-1-0.1-1.4H-345.5z M-286.9,506.2
	c-0.5-1.3-1.8-3.5-4.6-3.5c-2.8,0-5.2,2.2-5.2,5.5c0,3.1,2.3,5.5,5.4,5.5c2.5,0,4-1.5,4.5-2.4l-1.8-1.3c-0.6,0.9-1.4,1.5-2.7,1.5
	c-1.3,0-2.1-0.5-2.7-1.7l7.4-3.1L-286.9,506.2z M-294.4,508c0-2.1,1.7-3.2,2.8-3.2c0.9,0,1.8,0.5,2.1,1.2L-294.4,508z M-300.4,513.3
	h2.5v-16.1h-2.5V513.3z M-304.3,503.9c-0.6-0.6-1.7-1.3-3-1.3c-2.7,0-5.3,2.4-5.3,5.5s2.5,5.4,5.3,5.4c1.3,0,2.3-0.6,2.8-1.3h0.1
	v0.8c0,2.1-1.2,3.2-3,3.2c-1.4,0-2.5-1-2.7-1.9l-2.1,0.9c0.6,1.4,2.2,3.2,4.9,3.2c2.8,0,5.2-1.7,5.2-5.7V503h-2.3V503.9z
	 M-307.2,511.5c-1.7,0-3.1-1.4-3.1-3.4c0-1.9,1.4-3.4,3.1-3.4c1.7,0,3,1.4,3,3.4C-304.2,510.1-305.5,511.5-307.2,511.5z
	 M-275.6,497.2h-5.8v16.1h2.5v-6.1h3.4c2.7,0,5.3-1.9,5.3-5S-272.9,497.2-275.6,497.2L-275.6,497.2z M-275.5,504.9h-3.5v-5.5h3.5
	c1.8,0,2.8,1.5,2.8,2.7C-272.8,503.5-273.8,504.9-275.5,504.9z M-260.7,502.6c-1.8,0-3.6,0.8-4.3,2.4l2.2,0.9
	c0.5-0.9,1.3-1.2,2.2-1.2c1.3,0,2.5,0.8,2.6,2.1v0.1c-0.4-0.3-1.4-0.6-2.5-0.6c-2.3,0-4.6,1.3-4.6,3.6c0,2.2,1.9,3.6,4,3.6
	c1.7,0,2.5-0.8,3.1-1.5h0.1v1.3h2.3v-6.2C-255.7,504.3-257.9,502.6-260.7,502.6L-260.7,502.6z M-260.9,511.5c-0.8,0-1.9-0.4-1.9-1.4
	c0-1.3,1.4-1.7,2.6-1.7c1,0,1.5,0.3,2.2,0.5C-258.3,510.5-259.6,511.5-260.9,511.5L-260.9,511.5z M-247.4,503l-2.7,7h-0.1l-2.8-7
	h-2.6l4.3,9.8l-2.5,5.4h2.5l6.6-15.2H-247.4z M-269.1,513.3h2.5v-16.1h-2.5V513.3z"/>
<linearGradient id="SVGID_1_" gradientUnits="userSpaceOnUse" x1="-796.3028" y1="989.1142" x2="-797.4117" y2="988.9583" gradientTransform="matrix(19.5481 0 0 -37.5 15187.2725 37588.25)">
	<stop  offset="0" style="stop-color:#00A0FF"/>
	<stop  offset="6.570000e-003" style="stop-color:#00A1FF"/>
	<stop  offset="0.2601" style="stop-color:#00BEFF"/>
	<stop  offset="0.5122" style="stop-color:#00D2FF"/>
	<stop  offset="0.7604" style="stop-color:#00DFFF"/>
	<stop  offset="1" style="stop-color:#00E3FF"/>
</linearGradient>
<path class="st2" d="M-393.7,484.3c-0.4,0.4-0.6,1-0.6,1.8v28.5c0,0.8,0.3,1.4,0.6,1.8l0.1,0.1l16-16v-0.3L-393.7,484.3z"/>
<linearGradient id="SVGID_2_" gradientUnits="userSpaceOnUse" x1="-790.4727" y1="964.7619" x2="-792.5204" y2="964.7619" gradientTransform="matrix(15.2626 0 0 -12.75 11701.2383 12801.2002)">
	<stop  offset="0" style="stop-color:#FFE000"/>
	<stop  offset="0.4087" style="stop-color:#FFBD00"/>
	<stop  offset="0.7754" style="stop-color:#FFA500"/>
	<stop  offset="1" style="stop-color:#FF9C00"/>
</linearGradient>
<path class="st3" d="M-372.3,506l-5.3-5.3v-0.4l5.3-5.3l0.1,0.1l6.3,3.6c1.8,1,1.8,2.7,0,3.7L-372.3,506z"/>
<linearGradient id="SVGID_3_" gradientUnits="userSpaceOnUse" x1="-801.1111" y1="977.6179" x2="-801.8083" y2="976.1011" gradientTransform="matrix(25.1119 0 0 -19.3328 19739.1348 19403.4824)">
	<stop  offset="0" style="stop-color:#FF3A44"/>
	<stop  offset="1" style="stop-color:#C31162"/>
</linearGradient>
<path class="st4" d="M-372.1,505.8l-5.4-5.4l-16.1,16.1c0.6,0.6,1.5,0.6,2.7,0.1L-372.1,505.8z"/>
<linearGradient id="SVGID_4_" gradientUnits="userSpaceOnUse" x1="-801.6461" y1="977.9842" x2="-801.3376" y2="977.3038" gradientTransform="matrix(25.1119 0 0 -19.2431 19739.1348 19294.3301)">
	<stop  offset="0" style="stop-color:#32A071"/>
	<stop  offset="6.850000e-002" style="stop-color:#2DA771"/>
	<stop  offset="0.4762" style="stop-color:#15CF74"/>
	<stop  offset="0.8009" style="stop-color:#06E775"/>
	<stop  offset="1" style="stop-color:#00F076"/>
</linearGradient>
<path class="st5" d="M-372.1,495l-18.9-10.7c-1.2-0.6-2.1-0.5-2.7,0.1l16.1,16L-372.1,495z"/>
<path class="st6" d="M-372.3,505.7l-18.7,10.6c-1,0.6-1.9,0.5-2.6,0l-0.1,0.1l0.1,0.1c0.6,0.5,1.5,0.6,2.6,0L-372.3,505.7z"/>
<path class="st7" d="M-393.7,516.3c-0.4-0.4-0.5-1-0.5-1.8v0.1c0,0.8,0.3,1.4,0.6,1.8v-0.1H-393.7z M-365.8,502.1l-6.5,3.6l0.1,0.1
	l6.3-3.6c0.9-0.5,1.3-1.2,1.3-1.8C-364.5,501.1-365,501.6-365.8,502.1z"/>
<path class="st8" d="M-391,484.4l25.2,14.3c0.8,0.5,1.3,1,1.3,1.7c0-0.6-0.4-1.3-1.3-1.8l-25.2-14.3c-1.8-1-3.2-0.1-3.2,1.9v0.1
	C-394.2,484.3-392.8,483.4-391,484.4z"/>
</svg>
