<?xml version="1.0" encoding="utf-8"?>
<!-- Generator: Adobe Illustrator 19.0.0, SVG Export Plug-In . SVG Version: 6.00 Build 0)  -->
<svg version="1.1" id="圖層_1" xmlns="http://www.w3.org/2000/svg" xmlns:xlink="http://www.w3.org/1999/xlink" x="0px" y="0px"
	 viewBox="-409 471 180 60" style="enable-background:new -409 471 180 60;" xml:space="preserve">
<style type="text/css">
	.st0{fill:#FFFFFF;}
	.st1{fill:#A4C639;}
	.st2{opacity:0.2;enable-background:new    ;}
	.st3{opacity:0.12;enable-background:new    ;}
</style>
<g>
	<path d="M-396.3,529.7c-0.5,0-0.9,0-1.4,0c-0.9,0-1.9-0.1-2.8-0.2c-0.9-0.1-1.7-0.4-2.5-0.8c-0.8-0.4-1.5-0.9-2.1-1.5
		c-0.6-0.6-1.1-1.3-1.5-2.1c-0.4-0.8-0.7-1.6-0.8-2.5c-0.2-0.9-0.2-1.9-0.2-2.8c0-0.3,0-1.4,0-1.4v-34.6c0,0,0-1,0-1.3
		c0-0.9,0.1-1.9,0.2-2.8c0.1-0.9,0.4-1.7,0.8-2.5c0.4-0.8,0.9-1.5,1.5-2.1c0.6-0.6,1.3-1.1,2.1-1.5c0.8-0.4,1.6-0.7,2.5-0.8
		c0.9-0.2,1.9-0.2,2.8-0.2l1.4,0h154.2l1.4,0c0.9,0,1.9,0.1,2.8,0.2c0.9,0.1,1.7,0.4,2.5,0.8c1.6,0.8,2.8,2.1,3.6,3.6
		c0.4,0.8,0.7,1.6,0.8,2.5c0.2,0.9,0.2,1.9,0.3,2.8c0,0.4,0,0.9,0,1.3c0,0.6,0,1.1,0,1.6v31.4c0,0.5,0,1.1,0,1.6c0,0.5,0,0.9,0,1.4
		c0,0.9-0.1,1.9-0.3,2.8c-0.1,0.9-0.4,1.7-0.8,2.5c-0.4,0.8-0.9,1.5-1.5,2.1c-0.6,0.6-1.3,1.1-2.1,1.5c-0.8,0.4-1.6,0.7-2.5,0.8
		c-0.9,0.2-1.9,0.2-2.8,0.2c-0.4,0-0.9,0-1.3,0l-1.6,0L-396.3,529.7z"/>
	<g transform="translate(-179.26877,-381.87377)">
		<g transform="matrix(2.3177689,0,0,2.3177689,-52.089615,-823.26339)">
			<path class="st0" d="M-52.4,739.2c0-0.5,0.1-0.9,0.2-1.3s0.4-0.8,0.7-1.1c0.3-0.3,0.6-0.5,1-0.7c0.4-0.2,0.8-0.3,1.3-0.3
				c0.4,0,0.7,0.1,1,0.2c0.3,0.1,0.6,0.3,0.8,0.5v-0.5h1.6v6.4h-1.6v-0.5c-0.3,0.2-0.5,0.4-0.8,0.5c-0.3,0.1-0.6,0.2-1,0.2
				c-0.5,0-0.9-0.1-1.3-0.3s-0.7-0.4-1-0.7c-0.3-0.3-0.5-0.6-0.7-1.1S-52.4,739.7-52.4,739.2z M-49,741.1c0.1,0,0.3,0,0.4,0
				c0.1,0,0.3-0.1,0.4-0.1c0.1-0.1,0.3-0.2,0.4-0.3c0.1-0.1,0.3-0.3,0.4-0.4v-2c-0.1-0.2-0.3-0.3-0.4-0.4c-0.1-0.1-0.3-0.2-0.4-0.3
				c-0.1-0.1-0.3-0.1-0.4-0.1c-0.1,0-0.3,0-0.4,0c-0.3,0-0.5,0-0.7,0.1c-0.2,0.1-0.4,0.2-0.5,0.4c-0.2,0.2-0.3,0.4-0.4,0.6
				c-0.1,0.2-0.1,0.5-0.1,0.7s0,0.5,0.1,0.7c0.1,0.2,0.2,0.4,0.4,0.6s0.4,0.3,0.5,0.4C-49.5,741.1-49.3,741.1-49,741.1L-49,741.1z
				 M-41.9,737.5c-0.8,0-1.4,0.5-1.4,1.3v3.6h-1.6v-3.6c0-1.5,1.3-2.9,3-2.9h0c1.7,0,3,1.4,3,2.9v3.6h-1.6v-3.6
				C-40.5,738-41.2,737.5-41.9,737.5 M-38.2,739.2c0-0.5,0.1-0.9,0.2-1.3s0.4-0.8,0.7-1.1c0.3-0.3,0.6-0.5,1-0.7
				c0.4-0.2,0.8-0.3,1.3-0.3c0.4,0,0.7,0.1,1,0.2c0.3,0.1,0.6,0.3,0.8,0.5v-2.5h1.6v8.3h-1.6v-0.5c-0.3,0.2-0.5,0.4-0.8,0.5
				c-0.3,0.1-0.6,0.2-1,0.2c-0.5,0-0.9-0.1-1.3-0.3s-0.7-0.4-1-0.7c-0.3-0.3-0.5-0.6-0.7-1.1S-38.2,739.7-38.2,739.2z M-34.8,741.1
				c0.1,0,0.3,0,0.4,0s0.3-0.1,0.4-0.1c0.1-0.1,0.3-0.2,0.4-0.3c0.1-0.1,0.3-0.3,0.4-0.4v-2c-0.1-0.2-0.3-0.3-0.4-0.4
				c-0.1-0.1-0.3-0.2-0.4-0.3c-0.1-0.1-0.3-0.1-0.4-0.1c-0.1,0-0.3,0-0.4,0c-0.3,0-0.5,0-0.7,0.1c-0.2,0.1-0.4,0.2-0.5,0.4
				c-0.2,0.2-0.3,0.4-0.4,0.6c-0.1,0.2-0.1,0.5-0.1,0.7s0,0.5,0.1,0.7c0.1,0.2,0.2,0.4,0.4,0.6c0.2,0.2,0.4,0.3,0.5,0.4
				C-35.3,741.1-35.1,741.1-34.8,741.1L-34.8,741.1z M-24.2,741.1c0.2,0,0.4,0,0.7-0.1c0.2-0.1,0.4-0.2,0.5-0.4
				c0.2-0.2,0.3-0.4,0.4-0.6s0.1-0.5,0.1-0.7s0-0.5-0.1-0.7c-0.1-0.2-0.2-0.4-0.4-0.6c-0.2-0.2-0.4-0.3-0.5-0.4
				c-0.2-0.1-0.4-0.1-0.7-0.1c-0.2,0-0.4,0-0.7,0.1c-0.2,0.1-0.4,0.2-0.5,0.4c-0.2,0.2-0.3,0.4-0.4,0.6s-0.1,0.5-0.1,0.7
				s0,0.5,0.1,0.7c0.1,0.2,0.2,0.4,0.4,0.6c0.2,0.2,0.4,0.3,0.5,0.4C-24.7,741-24.4,741.1-24.2,741.1z M-24.2,742.6
				c-0.4,0-0.9-0.1-1.3-0.3s-0.8-0.4-1.1-0.7c-0.3-0.3-0.5-0.6-0.7-1.1c-0.2-0.4-0.3-0.8-0.3-1.3c0-0.4,0.1-0.9,0.3-1.3
				c0.2-0.4,0.4-0.8,0.7-1.1c0.3-0.3,0.7-0.5,1.1-0.7c0.4-0.2,0.8-0.3,1.3-0.3c0.4,0,0.9,0.1,1.3,0.3c0.4,0.2,0.8,0.4,1.1,0.7
				c0.3,0.3,0.5,0.6,0.7,1.1c0.2,0.4,0.3,0.8,0.3,1.3s-0.1,0.9-0.3,1.3c-0.2,0.4-0.4,0.8-0.7,1.1c-0.3,0.3-0.7,0.5-1.1,0.7
				C-23.3,742.5-23.7,742.6-24.2,742.6z M-19.4,735.5c-0.1,0-0.3,0-0.4-0.1c-0.1-0.1-0.2-0.1-0.3-0.2c-0.1-0.1-0.2-0.2-0.2-0.3
				c-0.1-0.1-0.1-0.2-0.1-0.4c0-0.1,0-0.3,0.1-0.4c0.1-0.1,0.1-0.2,0.2-0.3c0.1-0.1,0.2-0.2,0.3-0.2c0.1-0.1,0.2-0.1,0.4-0.1
				c0.1,0,0.3,0,0.4,0.1c0.1,0.1,0.2,0.1,0.3,0.2c0.1,0.1,0.2,0.2,0.2,0.3c0.1,0.1,0.1,0.2,0.1,0.4c0,0.1,0,0.3-0.1,0.4
				c-0.1,0.1-0.1,0.2-0.2,0.3c-0.1,0.1-0.2,0.2-0.3,0.2C-19.2,735.5-19.2,735.5-19.4,735.5z M-20.2,736.1h1.6v6.4h-1.6V736.1z
				 M-17.8,739.2c0-0.5,0.1-0.9,0.2-1.3c0.2-0.4,0.4-0.8,0.7-1.1c0.3-0.3,0.6-0.5,1-0.7c0.4-0.2,0.8-0.3,1.3-0.3
				c0.4,0,0.7,0.1,1,0.2c0.3,0.1,0.6,0.3,0.8,0.5v-2.5h1.6v8.3h-1.6v-0.5c-0.3,0.2-0.5,0.4-0.8,0.5c-0.3,0.1-0.6,0.2-1,0.2
				c-0.5,0-0.9-0.1-1.3-0.3c-0.4-0.2-0.7-0.4-1-0.7c-0.3-0.3-0.5-0.6-0.7-1.1C-17.8,740.1-17.8,739.7-17.8,739.2z M-14.5,741.1
				c0.1,0,0.3,0,0.4,0c0.1,0,0.3-0.1,0.4-0.1c0.1-0.1,0.3-0.2,0.4-0.3c0.1-0.1,0.3-0.3,0.4-0.4v-2c-0.1-0.2-0.3-0.3-0.4-0.4
				c-0.1-0.1-0.3-0.2-0.4-0.3c-0.1-0.1-0.3-0.1-0.4-0.1c-0.1,0-0.3,0-0.4,0c-0.3,0-0.5,0-0.7,0.1c-0.2,0.1-0.4,0.2-0.5,0.4
				c-0.2,0.2-0.3,0.4-0.4,0.6s-0.1,0.5-0.1,0.7s0,0.5,0.1,0.7c0.1,0.2,0.2,0.4,0.4,0.6c0.2,0.2,0.4,0.3,0.5,0.4
				C-14.9,741.1-14.7,741.1-14.5,741.1L-14.5,741.1z M-27.7,737.5c-1.1,0-1.5,0.5-1.5,1.3v3.6h-1.6v-3.6c0-1.5,0.9-3,3.1-3"/>
		</g>
	</g>
	<g>
		<path class="st1" d="M-384.6,480.8l1.9,3.2c-3.4,1.7-5.7,4.9-5.7,8.6h10.8h10.8c0-3.7-2.3-7-5.7-8.6l1.9-3.2c0,0,0.1-0.2-0.1-0.3
			c-0.2-0.1-0.3,0.1-0.3,0.1l-1.9,3.3c-1.4-0.6-3.1-1-4.8-1c-1.7,0-3.3,0.4-4.8,1l-1.9-3.3c0,0-0.1-0.2-0.3-0.1
			C-384.6,480.7-384.6,480.8-384.6,480.8L-384.6,480.8z M-382.7,487.1c0.6,0,1,0.5,1,1c0,0.6-0.5,1-1,1c-0.6,0-1-0.4-1-1
			C-383.7,487.6-383.3,487.1-382.7,487.1z M-372.4,487.1c0.6,0,1,0.5,1,1c0,0.6-0.5,1-1,1c-0.6,0-1-0.4-1-1
			C-373.4,487.6-373,487.1-372.4,487.1z"/>
		<path class="st1" d="M-388.5,494v16.4c0,0.8,1,1.9,1.8,1.9h2.6v5.6c0,1.4,1,2.6,2.3,2.6c1.3,0,2.3-1.1,2.3-2.6v-5.6h3.7v5.6
			c0,1.4,1,2.6,2.3,2.6s2.3-1.1,2.3-2.6v-5.6h2.6c0.8,0,1.8-1.1,1.8-1.9V494H-388.5L-388.5,494z"/>
		<path class="st1" d="M-392.1,493.6L-392.1,493.6c1.3,0,2.3,1.2,2.3,2.6v9.7c0,1.4-1,2.6-2.3,2.6l0,0c-1.3,0-2.3-1.2-2.3-2.6v-9.7
			C-394.4,494.8-393.3,493.6-392.1,493.6z"/>
		<path class="st1" d="M-363,493.6L-363,493.6c1.3,0,2.3,1.2,2.3,2.6v9.7c0,1.4-1,2.6-2.3,2.6l0,0c-1.3,0-2.3-1.2-2.3-2.6v-9.7
			C-365.4,494.8-364.3,493.6-363,493.6z"/>
	</g>
	<g>
		<path class="st0" d="M-352.7,482.9h1.9c1.3,0,2.2,0.2,2.8,0.5c0.6,0.3,1.1,0.8,1.5,1.5s0.6,1.5,0.6,2.4c0,0.7-0.1,1.3-0.3,1.8
			c-0.2,0.6-0.5,1-0.9,1.4s-0.8,0.6-1.3,0.8c-0.5,0.1-1.2,0.2-2.4,0.2h-2V482.9z M-351,484.5v5.4h0.8c0.8,0,1.3-0.1,1.6-0.3
			c0.3-0.2,0.6-0.5,0.8-0.9c0.2-0.4,0.3-0.9,0.3-1.5c0-0.9-0.3-1.6-0.8-2.1c-0.5-0.5-1.2-0.7-2.2-0.7H-351z"/>
		<path class="st0" d="M-340.2,482.7c1.2,0,2.3,0.4,3.1,1.3s1.3,2,1.3,3.2c0,1.3-0.4,2.3-1.3,3.2s-1.9,1.3-3.2,1.3
			c-1.3,0-2.4-0.4-3.2-1.3s-1.3-2-1.3-3.2c0-0.8,0.2-1.6,0.6-2.3c0.4-0.7,0.9-1.2,1.6-1.6S-341,482.7-340.2,482.7z M-340.2,484.3
			c-0.8,0-1.5,0.3-2,0.8c-0.5,0.6-0.8,1.3-0.8,2.1c0,1,0.3,1.7,1,2.3c0.5,0.4,1.1,0.7,1.8,0.7c0.8,0,1.4-0.3,2-0.8s0.8-1.3,0.8-2.1
			c0-0.8-0.3-1.5-0.8-2.1S-339.4,484.3-340.2,484.3z"/>
		<path class="st0" d="M-334.8,482.9h1.6l1.2,5.5l1.5-5.5h1.4l1.6,5.5l1.2-5.5h1.6l-1.9,8.6h-1.6l-1.6-5.6l-1.6,5.6h-1.6
			L-334.8,482.9z"/>
		<path class="st0" d="M-323.4,482.9h1.6l3.7,5.7v-5.7h1.6v8.6h-1.6l-3.7-5.7v5.7h-1.6V482.9z"/>
		<path class="st0" d="M-314.5,482.9h1.6v7.1h2.4v1.6h-4V482.9z"/>
		<path class="st0" d="M-305.2,482.7c1.2,0,2.3,0.4,3.1,1.3s1.3,2,1.3,3.2c0,1.3-0.4,2.3-1.3,3.2s-1.9,1.3-3.2,1.3
			c-1.3,0-2.4-0.4-3.2-1.3c-0.9-0.9-1.3-2-1.3-3.2c0-0.8,0.2-1.6,0.6-2.3c0.4-0.7,0.9-1.2,1.6-1.6
			C-306.7,482.9-306,482.7-305.2,482.7z M-305.2,484.3c-0.8,0-1.5,0.3-2,0.8c-0.5,0.6-0.8,1.3-0.8,2.1c0,1,0.3,1.7,1,2.3
			c0.5,0.4,1.1,0.7,1.8,0.7c0.8,0,1.4-0.3,2-0.8s0.8-1.3,0.8-2.1c0-0.8-0.3-1.5-0.8-2.1S-304.4,484.3-305.2,484.3z"/>
		<path class="st0" d="M-296.5,482.9h1.7l3.3,8.6h-1.7l-0.7-1.8h-3.5l-0.7,1.8h-1.7L-296.5,482.9z M-295.7,485.2l-1.2,3h2.3
			L-295.7,485.2z"/>
		<path class="st0" d="M-290.3,482.9h1.9c1.3,0,2.2,0.2,2.8,0.5c0.6,0.3,1.1,0.8,1.5,1.5c0.4,0.7,0.6,1.5,0.6,2.4
			c0,0.7-0.1,1.3-0.3,1.8s-0.5,1-0.9,1.4s-0.8,0.6-1.3,0.8c-0.5,0.1-1.2,0.2-2.4,0.2h-2V482.9z M-288.6,484.5v5.4h0.8
			c0.8,0,1.3-0.1,1.6-0.3c0.3-0.2,0.6-0.5,0.8-0.9c0.2-0.4,0.3-0.9,0.3-1.5c0-0.9-0.3-1.6-0.8-2.1c-0.5-0.5-1.2-0.7-2.2-0.7H-288.6z
			"/>
		<path class="st0" d="M-275.9,482.9h1.7l3.3,8.6h-1.7l-0.7-1.8h-3.5l-0.7,1.8h-1.7L-275.9,482.9z M-275,485.2l-1.2,3h2.3
			L-275,485.2z"/>
		<path class="st0" d="M-269.6,482.9h1.7c0.9,0,1.6,0.1,2,0.3s0.7,0.5,1,0.8s0.4,0.9,0.4,1.4c0,0.6-0.2,1.1-0.5,1.5
			s-0.7,0.7-1.3,0.8c-0.3,0.1-0.9,0.1-1.7,0.1v3.7h-1.6V482.9z M-268,486.3h0.5c0.4,0,0.7,0,0.9-0.1c0.2-0.1,0.3-0.2,0.4-0.3
			c0.1-0.1,0.1-0.3,0.1-0.5c0-0.3-0.1-0.6-0.4-0.7c-0.2-0.1-0.5-0.2-1-0.2h-0.5V486.3z"/>
		<path class="st0" d="M-262.9,482.9h1.7v3l2.3-3h2l-3,3.8l3.3,4.8h-1.9l-2.7-3.8v3.8h-1.7V482.9z"/>
	</g>
	<path class="st2" d="M-372.3,505.7l-18.7,10.6c-1,0.6-1.9,0.5-2.6,0l-0.1,0.1l0.1,0.1c0.6,0.5,1.5,0.6,2.6,0L-372.3,505.7z"/>
	<path class="st3" d="M-393.7,516.3c-0.4-0.4-0.5-1-0.5-1.8v0.1c0,0.8,0.3,1.4,0.6,1.8v-0.1H-393.7z M-365.8,502.1l-6.5,3.6l0.1,0.1
		l6.3-3.6c0.9-0.5,1.3-1.2,1.3-1.8C-364.5,501.1-365,501.6-365.8,502.1z"/>
</g>
</svg>
