<svg id="レイヤー_1" data-name="レイヤー 1" xmlns="http://www.w3.org/2000/svg" viewBox="0 0 300 100"><defs><style>.cls-1{fill:#fff;}</style></defs><title>img_budge_ios</title><rect y="0.1" width="300" height="100" rx="16"/><path class="cls-1" d="M114.47,42.47H104l-2.51,7.42H97.08L107,22.46h4.6l9.91,27.43H117Zm-9.37-3.42h8.29L109.3,27h-.11Z"/><path class="cls-1" d="M142.87,39.89c0,6.21-3.32,10.21-8.34,10.21a6.81,6.81,0,0,1-6.3-3.5h-.09v9.9H124V29.89h4v3.32h.07a7.11,7.11,0,0,1,6.37-3.53C139.53,29.68,142.87,33.69,142.87,39.89Zm-4.22,0c0-4-2.09-6.71-5.28-6.71s-5.25,2.72-5.25,6.71,2.11,6.73,5.25,6.73,5.28-2.65,5.28-6.73Z"/><path class="cls-1" d="M164.88,39.89c0,6.21-3.32,10.21-8.34,10.21a6.79,6.79,0,0,1-6.29-3.5h-.1v9.9h-4.1V29.89h4v3.32h.07a7.11,7.11,0,0,1,6.37-3.53C161.54,29.68,164.88,33.69,164.88,39.89Zm-4.22,0c0-4-2.09-6.71-5.28-6.71s-5.25,2.72-5.25,6.71,2.11,6.73,5.25,6.73S160.66,44,160.66,39.89Z"/><path class="cls-1" d="M179.43,42.24c.3,2.72,2.95,4.51,6.56,4.51,3.46,0,5.95-1.79,5.95-4.24,0-2.13-1.51-3.4-5.06-4.28l-3.56-.85c-5-1.22-7.37-3.57-7.37-7.4,0-4.73,4.12-8,10-8s9.77,3.25,9.9,8h-4.14c-.25-2.73-2.51-4.39-5.82-4.39s-5.57,1.68-5.57,4.11c0,1.94,1.45,3.08,5,3.95l3,.74c5.62,1.34,8,3.6,8,7.61,0,5.13-4.09,8.34-10.59,8.34-6.08,0-10.19-3.13-10.45-8.1Z"/><path class="cls-1" d="M205.13,25.16v4.73h3.81v3.25h-3.81v11c0,1.72.76,2.51,2.44,2.51a10.2,10.2,0,0,0,1.35-.09v3.23a11.7,11.7,0,0,1-2.28.19c-4,0-5.63-1.52-5.63-5.4V33.14H198.1V29.89H201V25.16Z"/><path class="cls-1" d="M211.14,39.89c0-6.29,3.7-10.25,9.48-10.25s9.49,4,9.49,10.25-3.67,10.24-9.49,10.24S211.14,46.2,211.14,39.89Zm14.78,0c0-4.32-2-6.87-5.3-6.87s-5.3,2.57-5.3,6.87,2,6.86,5.3,6.86S225.92,44.22,225.92,39.89Z"/><path class="cls-1" d="M233.49,29.89h3.92v3.4h.09a4.76,4.76,0,0,1,4.81-3.61,6.69,6.69,0,0,1,1.41.15v3.84a6.08,6.08,0,0,0-1.85-.25,4.14,4.14,0,0,0-4.3,4,3.33,3.33,0,0,0,0,.63V49.89h-4.11Z"/><path class="cls-1" d="M262.64,44A8,8,0,0,1,254,50.13c-5.82,0-9.43-3.89-9.43-10.15s3.63-10.34,9.26-10.34,9,3.8,9,9.87v1.4H248.75v.25a5.21,5.21,0,0,0,4.73,5.65c.21,0,.43,0,.65,0A4.54,4.54,0,0,0,258.75,44Zm-13.87-6h10A4.81,4.81,0,0,0,254.23,33h-.37a5.05,5.05,0,0,0-5.09,5Z"/><path class="cls-1" d="M102.26,79.26l.18-2.11a8.15,8.15,0,0,0,2.45.39c.75,0,1-.07,1.41-.59a11.72,11.72,0,0,0,1.11-6c0-2.19-.67-2.82-2.4-2.82-.39,0-.83,0-1.31,0a35.37,35.37,0,0,1-4.57,10.64l-2-1.09a28.72,28.72,0,0,0,4.26-9.33,34.77,34.77,0,0,0-4,.65L97,66.94c1.48-.26,3.25-.5,4.91-.65a44.57,44.57,0,0,0,.75-4.88l2.38.26c-.22,1.48-.49,3-.83,4.43h.95c3.09,0,4.57,1.53,4.57,4.78a15.11,15.11,0,0,1-1.41,7.22,3,3,0,0,1-2.92,1.55A13.65,13.65,0,0,1,102.26,79.26Zm7.83-13.09L111.86,65A13.71,13.71,0,0,1,116,74l-2.34.36A11.32,11.32,0,0,0,110.09,66.17Z"/><path class="cls-1" d="M124.07,79.6l-.48-2.18c.6,0,1.4.07,1.89.07,4.81,0,6.63-1.36,6.63-3.38,0-1.6-1-2.52-3.37-2.52a10.4,10.4,0,0,0-6.66,3.25L120.21,74a14.21,14.21,0,0,1,2.06-9.11l2.17.7a9.49,9.49,0,0,0-1.85,6.32,12.37,12.37,0,0,1,6.63-2.26c3.26,0,5.27,1.67,5.27,4.39,0,3.45-2.72,5.57-9.25,5.57C124.92,79.63,124.46,79.6,124.07,79.6Zm-2.26-16.13.61-2.14A68.07,68.07,0,0,1,132,63.52l-.59,2.11a55,55,0,0,0-9.57-2.16Z"/><path class="cls-1" d="M141.53,77.93a15.34,15.34,0,0,0,6.53-4.23,27.36,27.36,0,0,0-4.54-3.06L144.86,69a29.88,29.88,0,0,1,4.61,2.92,15.38,15.38,0,0,0,2.38-5.62h-6.19a24.73,24.73,0,0,1-5.3,6.1l-1.77-1.53a22.92,22.92,0,0,0,6.75-9.28l2.34.56c-.27.68-.54,1.38-.85,2h6l1.73.8a18.45,18.45,0,0,1-11.64,14.87Zm10.25-17,1.36-.66a15.11,15.11,0,0,1,1.73,3l-1.53.71A13.24,13.24,0,0,0,151.78,61Zm3-.24,1.38-.66A16.4,16.4,0,0,1,158,63.13l-1.53.66a13.41,13.41,0,0,0-1.63-3.06Z"/><path class="cls-1" d="M165.45,79.72l-1.24-2A10.18,10.18,0,0,0,172.76,67h-10.2v4.89H160.1V65h6.1V61.41h2.46V65h4.54l2.23.63C175.14,72.51,172.83,77.78,165.45,79.72Z"/><path class="cls-1" d="M180.16,65.15l1.36-2a30.39,30.39,0,0,1,6,3.63l-1.56,2.09A28.35,28.35,0,0,0,180.16,65.15Zm.46,12a18.92,18.92,0,0,0,14-10.11l1.6,1.8a20.55,20.55,0,0,1-14.69,10.56Z"/><path class="cls-1" d="M216.15,78.29H200.87V63.84h15.28ZM203.28,66.07v10h10.44v-10Z"/><path class="cls-1" d="M238,71.8H220.86V69.33H238Z"/><path class="cls-1" d="M243.88,61.48h2.4V67.7a74.38,74.38,0,0,1,9.28,4.64l-1.36,2.14a58,58,0,0,0-7.92-4.25V79.6h-2.4Zm5.71,1.31,1.43-.68a16.29,16.29,0,0,1,1.73,3.31l-1.58.7A15.17,15.17,0,0,0,249.59,62.79Zm2.76-1,1.46-.68a15.87,15.87,0,0,1,1.83,3.3l-1.58.7a15.8,15.8,0,0,0-1.71-3.32Z"/><g id="_Group_" data-name=" Group "><g id="_Group_2" data-name=" Group 2"><path id="_Path_" data-name=" Path " class="cls-1" d="M72.16,52.14a12.77,12.77,0,0,1,6.08-10.72,13.09,13.09,0,0,0-10.3-5.56c-4.34-.46-8.54,2.59-10.74,2.59S51.55,35.9,47.88,36a13.72,13.72,0,0,0-11.54,7c-5,8.64-1.27,21.34,3.51,28.32,2.4,3.42,5.19,7.24,8.85,7.11s4.92-2.29,9.24-2.29,5.53,2.29,9.26,2.2,6.26-3.44,8.57-6.89a28.36,28.36,0,0,0,3.92-8A12.33,12.33,0,0,1,72.16,52.14Z"/><path id="_Path_2" data-name=" Path 2" class="cls-1" d="M65.11,31.26a12.57,12.57,0,0,0,2.87-9,12.73,12.73,0,0,0-8.27,4.28,12,12,0,0,0-3,8.67A10.55,10.55,0,0,0,65.11,31.26Z"/></g></g></svg>