<svg id="レイヤー_1" data-name="レイヤー 1" xmlns="http://www.w3.org/2000/svg" xmlns:xlink="http://www.w3.org/1999/xlink" viewBox="0 0 300 100"><defs><style>.cls-1,.cls-8,.cls-9{fill:#fff;}.cls-2{fill:url(#linear-gradient);}.cls-3{fill:url(#linear-gradient-2);}.cls-4{fill:url(#linear-gradient-3);}.cls-5{fill:url(#linear-gradient-4);}.cls-6{opacity:0.2;}.cls-6,.cls-7,.cls-8{isolation:isolate;}.cls-7{opacity:0.12;}.cls-8{opacity:0.25;}.cls-9{stroke:#fff;stroke-miterlimit:10;stroke-width:0.2px;}</style><linearGradient id="linear-gradient" x1="57.02" y1="77.28" x2="17.7" y2="37.97" gradientTransform="matrix(1, 0, 0, -1, 0, 102)" gradientUnits="userSpaceOnUse"><stop offset="0" stop-color="#00a0ff"/><stop offset="0.01" stop-color="#00a1ff"/><stop offset="0.26" stop-color="#00beff"/><stop offset="0.51" stop-color="#00d2ff"/><stop offset="0.76" stop-color="#00dfff"/><stop offset="1" stop-color="#00e3ff"/></linearGradient><linearGradient id="linear-gradient-2" x1="85.2" y1="50.83" x2="28.53" y2="50.83" gradientTransform="matrix(1, 0, 0, -1, 0, 102)" gradientUnits="userSpaceOnUse"><stop offset="0" stop-color="#ffe000"/><stop offset="0.41" stop-color="#ffbd00"/><stop offset="0.78" stop-color="orange"/><stop offset="1" stop-color="#ff9c00"/></linearGradient><linearGradient id="linear-gradient-3" x1="64.11" y1="45.46" x2="10.8" y2="-7.85" gradientTransform="matrix(1, 0, 0, -1, 0, 102)" gradientUnits="userSpaceOnUse"><stop offset="0" stop-color="#ff3a44"/><stop offset="1" stop-color="#c31162"/></linearGradient><linearGradient id="linear-gradient-4" x1="23.05" y1="97.27" x2="46.85" y2="73.47" gradientTransform="matrix(1, 0, 0, -1, 0, 102)" gradientUnits="userSpaceOnUse"><stop offset="0" stop-color="#32a071"/><stop offset="0.07" stop-color="#2da771"/><stop offset="0.48" stop-color="#15cf74"/><stop offset="0.8" stop-color="#06e775"/><stop offset="1" stop-color="#00f076"/></linearGradient></defs><title>img_budge_android</title><rect width="300" height="100" rx="16"/><path class="cls-1" d="M157.56,34.28A8.71,8.71,0,1,0,166.3,43,8.58,8.58,0,0,0,157.56,34.28Zm0,14A5,5,0,0,1,152.65,43a4.93,4.93,0,1,1,9.83,0A5,5,0,0,1,157.56,48.26Zm-19.07-14a8.71,8.71,0,1,0,8.74,8.7A8.58,8.58,0,0,0,138.49,34.28Zm0,14A5,5,0,0,1,133.58,43a4.93,4.93,0,1,1,9.83,0A5,5,0,0,1,138.49,48.26ZM115.81,37v3.69h8.84a7.75,7.75,0,0,1-2,4.65A9,9,0,0,1,115.81,48a9.83,9.83,0,0,1,0-19.66A9.39,9.39,0,0,1,122.47,31l2.61-2.61a12.9,12.9,0,0,0-9.27-3.73,13.53,13.53,0,1,0,0,27.05,12.37,12.37,0,0,0,9.43-3.79,12.21,12.21,0,0,0,3.2-8.64,11.42,11.42,0,0,0-.2-2.31Zm92.76,2.87c-.72-2-2.93-5.54-7.45-5.54s-8.21,3.53-8.21,8.7a8.52,8.52,0,0,0,8.64,8.71,8.67,8.67,0,0,0,7.26-3.86l-3-2a5,5,0,0,1-4.29,2.41,4.42,4.42,0,0,1-4.22-2.64L209,40.81Zm-11.87,2.9a4.78,4.78,0,0,1,4.55-5.08,3.36,3.36,0,0,1,3.23,1.85Zm-9.47,8.44h3.83V25.57h-3.83ZM181,36.22h-.14a6,6,0,0,0-4.58-1.94,8.71,8.71,0,0,0,0,17.41,5.9,5.9,0,0,0,4.58-2H181V51c0,3.33-1.79,5.11-4.65,5.11a4.81,4.81,0,0,1-4.39-3.1l-3.33,1.38a8.29,8.29,0,0,0,7.72,5.15c4.48,0,8.27-2.64,8.27-9.07V34.8H181Zm-4.39,12A5,5,0,0,1,171.73,43a5,5,0,0,1,4.85-5.31c2.6,0,4.65,2.24,4.65,5.31S179.18,48.26,176.58,48.26ZM226.5,25.57h-9.16V51.16h3.82V41.47h5.34c4.23,0,8.39-3.07,8.39-7.95S230.73,25.57,226.5,25.57Zm.1,12.33h-5.44V29.13h5.44a4.39,4.39,0,1,1,0,8.77Zm23.61-3.67c-2.77,0-5.63,1.22-6.82,3.92l3.39,1.41a3.63,3.63,0,0,1,3.49-1.87c2,0,4,1.18,4,3.29v.26a8.49,8.49,0,0,0-4-1c-3.66,0-7.38,2-7.38,5.77,0,3.42,3,5.63,6.35,5.63a5.4,5.4,0,0,0,4.88-2.5h.13v2H258V41.31C258,36.76,254.59,34.23,250.21,34.23Zm-.46,14c-1.26,0-3-.63-3-2.18,0-2,2.17-2.73,4.05-2.73a6.74,6.74,0,0,1,3.49.86A4.63,4.63,0,0,1,249.75,48.26Zm21.66-13.47L267,45.89h-.13l-4.54-11.1h-4.12l6.82,15.51-3.89,8.63h4l10.5-24.14ZM237,51.16h3.82V25.57H237Z"/><path class="cls-2" d="M30.4,22a4.65,4.65,0,0,0-1.09,3.29V77.07a4.65,4.65,0,0,0,1.09,3.29l.17.17,29-29v-.69l-29-29Z"/><path class="cls-3" d="M69.26,61.19l-9.67-9.68v-.69l9.67-9.67.22.12,11.46,6.52c3.28,1.86,3.28,4.9,0,6.76L69.48,61.06Z"/><path class="cls-4" d="M69.48,61.06l-9.89-9.89L30.4,80.36c1.08,1.14,2.86,1.28,4.86.14L69.48,61.06"/><path class="cls-5" d="M69.48,41.27,35.26,21.83c-2-1.14-3.78-1-4.86.14l29.19,29.2Z"/><path class="cls-6" d="M69.26,60.84l-34,19.32c-1.9,1.08-3.6,1-4.69,0h0l-.17.17h0l.17.17h0c1.09,1,2.79,1,4.69,0L69.48,61.06Z"/><path class="cls-7" d="M30.4,80a4.65,4.65,0,0,1-1.09-3.29v.34a4.65,4.65,0,0,0,1.09,3.29l.17-.17Z"/><path class="cls-7" d="M80.94,54.21,69.26,60.84l.22.22,11.46-6.51c1.64-.93,2.46-2.16,2.46-3.38h0A4.37,4.37,0,0,1,80.94,54.21Z"/><path class="cls-8" d="M35.26,22.17l45.68,26a4.35,4.35,0,0,1,2.46,3h0c0-1.23-.82-2.46-2.46-3.39L35.26,21.83C32,20,29.31,21.52,29.31,25.27v.34C29.31,21.86,32,20.31,35.26,22.17Z"/><path class="cls-9" d="M103.86,67.63c1.37-.13,5.32-.51,9.16-.85,2.27-.18,4.24-.29,5.63-.35v1.68a17.09,17.09,0,0,0-4.09.34,7.29,7.29,0,0,0-4.77,6.6c0,4.07,3.8,5.36,7.19,5.48l-.61,1.77c-3.86-.16-8.27-2.23-8.27-6.89a8.42,8.42,0,0,1,3.88-7c-1.83.21-7.53.76-9.78,1.22L102,67.73C102.81,67.71,103.46,67.67,103.86,67.63Zm13.56,6-1.07.51a20.08,20.08,0,0,0-1.73-3l1.07-.47A24.91,24.91,0,0,1,117.42,73.59Zm2.41-.9-1.1.5a19,19,0,0,0-1.79-2.93l1-.48A30.77,30.77,0,0,1,119.83,72.69Z"/><path class="cls-9" d="M140.77,76.36h-8.65V81c0,1.12-.34,1.58-1.12,1.83a16,16,0,0,1-4.34.28,8.15,8.15,0,0,0-.67-1.56c1.77.06,3.41,0,3.9,0s.65-.15.65-.59V76.36h-8.67V74.82h8.67V71.4h-7.25V69.91h7.25V66.66c-2.32.25-4.7.4-6.88.5a6.78,6.78,0,0,0-.4-1.39c5-.23,11.1-.78,14.26-1.77l1.18,1.25a40.75,40.75,0,0,1-6.58,1.24v3.42h7.47V71.4h-7.47v3.42h8.65Z"/><path class="cls-9" d="M147.2,65.79a13.56,13.56,0,0,0-.4,1.42,48.09,48.09,0,0,0-1,8,23.14,23.14,0,0,0,.17,2.87c.36-.95.83-2.18,1.16-3l.91.67a45.3,45.3,0,0,0-1.48,4.69,5.37,5.37,0,0,0-.1.93l.06.73L145,82.2a26.26,26.26,0,0,1-.76-6.71,58.38,58.38,0,0,1,.93-8.37,11.1,11.1,0,0,0,.15-1.47ZM152,75.91a7.73,7.73,0,0,0-.27,1.92c0,1,.63,1.88,3.5,1.88a22.71,22.71,0,0,0,5.17-.55l0,1.77a27.13,27.13,0,0,1-5.21.43c-3.5,0-5.06-1.16-5.06-3.13a12,12,0,0,1,.34-2.46Zm-.82-8.51a36.74,36.74,0,0,0,8.58,0v1.73a53.18,53.18,0,0,1-8.56,0Z"/><path class="cls-9" d="M173.82,65.25c0,3.73.49,11.68,8.75,16.59a7.13,7.13,0,0,0-1.26,1.31,18.2,18.2,0,0,1-8.38-11.75c-1.56,5.46-4.21,9.3-8.41,11.77a9.54,9.54,0,0,0-1.41-1.24c4.66-2.43,7.25-6.67,8.54-12.57l.93.14a26.51,26.51,0,0,1-.28-2.69h-5.18V65.25Z"/><path class="cls-9" d="M203.11,79.92a5.35,5.35,0,0,1-3.84,1.75c-1.37,0-2.32-.93-2.32-2.66,0-2.32.78-5.75.78-7.78a1.48,1.48,0,0,0-1.66-1.7c-1.69,0-4.22,2-6.14,4,0,.89-.06,1.71-.06,2.45,0,1.9,0,3.16.08,5,0,.36.06.89.11,1.26h-1.84c0-.29.06-.9.06-1.24,0-2,0-3,.07-5.36,0-.21,0-.48,0-.8-1,1.54-2.39,3.54-3.4,4.94l-1.05-1.46c1.16-1.45,3.56-4.7,4.62-6.35l.12-2c-.95.11-2.76.36-4.07.53l-.17-1.75a10.52,10.52,0,0,0,1.37,0c.68,0,1.9-.17,3-.34.06-1,.1-1.73.1-2a7.56,7.56,0,0,0-.08-1.56l2,.06c-.1.51-.27,1.69-.42,3.14l.11,0,.61.74-.93,1.45c0,.38-.06.78-.1,1.19,1.62-1.5,4.3-3.5,6.39-3.5a2.61,2.61,0,0,1,3,2.8c0,2.09-.78,5.69-.78,7.8,0,.72.33,1.27,1.07,1.27a4.6,4.6,0,0,0,3.14-1.73Z"/><path class="cls-9" d="M214.87,71c0,1.37.11,3.4.21,5.21a16.62,16.62,0,0,1,6.5,3.56l-1,1.56a14.62,14.62,0,0,0-5.42-3.43c0,.54,0,1,0,1.39,0,1.71-1.06,3.18-3.84,3.18s-5-.92-5-3.31c0-1.88,1.65-3.44,5.25-3.44a13.17,13.17,0,0,1,1.77.13c-.08-1.69-.16-3.6-.16-4.85s0-2.93,0-3.81a16.16,16.16,0,0,0-.16-2.07h2a18.8,18.8,0,0,0-.17,2.07c0,.56,0,1.3,0,2.12,1.67,0,4.3-.14,6.18-.4l.07,1.61c-1.86.17-4.54.29-6.25.33Zm-1.43,6.43a9.39,9.39,0,0,0-2.05-.21c-2.15,0-3.37.74-3.37,1.88s1.16,1.79,3.16,1.79c1.54,0,2.28-.72,2.28-2.15C213.46,78.4,213.44,78,213.44,77.43Z"/><path class="cls-9" d="M234.12,71.55a19.8,19.8,0,0,0-5.69,1.07c-.63.17-1.24.43-1.75.62l-.53-1.94c.57-.07,1.29-.19,1.9-.32a27.6,27.6,0,0,1,6.24-1c3,0,5.19,1.66,5.19,4.64,0,4.53-4,7.1-9.45,7.91l-1-1.61c5.06-.63,8.65-2.61,8.65-6.37C237.69,72.79,236.27,71.55,234.12,71.55Zm3.69-5.44-.25,1.62c-2.32-.14-6.54-.57-8.9-1l.28-1.6A55.49,55.49,0,0,0,237.81,66.11Z"/></svg>